<mxfile host="app.diagrams.net" agent="Mozilla/5.0 (Windows NT 10.0; Win64; x64) AppleWebKit/537.36 (KHTML, like Gecko) Chrome/138.0.0.0 Safari/537.36 Edg/138.0.0.0" version="27.2.0">
  <diagram name="第 1 页" id="wFyW_Cmr_p7eIlI1zy-i">
    <mxGraphModel dx="3038" dy="2620" grid="1" gridSize="10" guides="1" tooltips="1" connect="1" arrows="1" fold="1" page="1" pageScale="1" pageWidth="827" pageHeight="1169" background="#ffffff" math="0" shadow="0">
      <root>
        <mxCell id="0" />
        <mxCell id="1" parent="0" />
        <mxCell id="2_VgH_F3UV7ENEaMxQOe-33" value="Claw Cloud" style="rounded=0;whiteSpace=wrap;html=1;align=left;" parent="1" vertex="1">
          <mxGeometry x="1485" y="420" width="325" height="260" as="geometry" />
        </mxCell>
        <mxCell id="2_VgH_F3UV7ENEaMxQOe-67" style="edgeStyle=orthogonalEdgeStyle;rounded=0;orthogonalLoop=1;jettySize=auto;html=1;exitX=1;exitY=0.25;exitDx=0;exitDy=0;entryX=0.5;entryY=0;entryDx=0;entryDy=0;fontSize=12;shape=link;" parent="1" source="2_VgH_F3UV7ENEaMxQOe-3" target="2_VgH_F3UV7ENEaMxQOe-33" edge="1">
          <mxGeometry relative="1" as="geometry" />
        </mxCell>
        <mxCell id="2_VgH_F3UV7ENEaMxQOe-3" value="Page Service" style="rounded=0;whiteSpace=wrap;html=1;align=left;" parent="1" vertex="1">
          <mxGeometry x="20" y="40" width="850" height="220" as="geometry" />
        </mxCell>
        <mxCell id="2_VgH_F3UV7ENEaMxQOe-41" value="&lt;div&gt;&lt;br&gt;&lt;/div&gt;&lt;div&gt;&lt;br&gt;&lt;/div&gt;&lt;div&gt;&lt;br&gt;&lt;/div&gt;&lt;div&gt;&lt;br&gt;&lt;/div&gt;&lt;div&gt;&lt;br&gt;&lt;/div&gt;Cloudflare&amp;nbsp; &amp;nbsp; &amp;nbsp; &amp;nbsp; &amp;nbsp; &amp;nbsp; &amp;nbsp; &amp;nbsp; &amp;nbsp; &amp;nbsp; &amp;nbsp; &amp;nbsp; &amp;nbsp; &amp;nbsp; &amp;nbsp; &amp;nbsp; &amp;nbsp; &amp;nbsp; &amp;nbsp; &amp;nbsp; &amp;nbsp; &amp;nbsp; &amp;nbsp; &amp;nbsp; &amp;nbsp; &amp;nbsp; &amp;nbsp; &amp;nbsp; &amp;nbsp; &amp;nbsp; &amp;nbsp; &amp;nbsp; &amp;nbsp; &amp;nbsp; &amp;nbsp; &amp;nbsp; &amp;nbsp; &amp;nbsp; &amp;nbsp; &amp;nbsp;" style="rounded=0;whiteSpace=wrap;html=1;fillColor=#b1ddf0;strokeColor=#10739e;" parent="1" vertex="1">
          <mxGeometry x="704" y="170" width="516" height="130" as="geometry" />
        </mxCell>
        <mxCell id="2_VgH_F3UV7ENEaMxQOe-1" value="Render" style="rounded=0;whiteSpace=wrap;html=1;align=left;" parent="1" vertex="1">
          <mxGeometry x="560" y="360" width="870" height="320" as="geometry" />
        </mxCell>
        <mxCell id="2_VgH_F3UV7ENEaMxQOe-6" value="&lt;div&gt;&lt;span style=&quot;background-color: transparent; color: light-dark(rgb(0, 0, 0), rgb(255, 255, 255));&quot;&gt;机器人框架&lt;/span&gt;&lt;/div&gt;NapCat QQ" style="rounded=0;whiteSpace=wrap;html=1;align=left;fillColor=#bac8d3;strokeColor=#23445d;" parent="1" vertex="1">
          <mxGeometry x="1035" y="417" width="380" height="125" as="geometry" />
        </mxCell>
        <mxCell id="2_VgH_F3UV7ENEaMxQOe-2" value="Supabase" style="rounded=0;whiteSpace=wrap;html=1;fillColor=#b0e3e6;strokeColor=#0e8088;" parent="1" vertex="1">
          <mxGeometry x="233" y="322" width="270" height="85" as="geometry" />
        </mxCell>
        <mxCell id="2_VgH_F3UV7ENEaMxQOe-4" value="Onebot" style="rounded=0;whiteSpace=wrap;html=1;fillColor=#bac8d3;strokeColor=#23445d;" parent="1" vertex="1">
          <mxGeometry x="1095" y="540" width="310" height="20" as="geometry" />
        </mxCell>
        <mxCell id="2_VgH_F3UV7ENEaMxQOe-44" style="edgeStyle=none;curved=1;rounded=0;orthogonalLoop=1;jettySize=auto;html=1;exitX=0;exitY=0.75;exitDx=0;exitDy=0;entryX=1;entryY=0.75;entryDx=0;entryDy=0;fontSize=12;startSize=8;endSize=8;" parent="1" source="2_VgH_F3UV7ENEaMxQOe-5" target="2_VgH_F3UV7ENEaMxQOe-18" edge="1">
          <mxGeometry relative="1" as="geometry" />
        </mxCell>
        <mxCell id="9-VR7E2qSb-oxVVlqB_M-5" style="edgeStyle=none;curved=1;rounded=0;orthogonalLoop=1;jettySize=auto;html=1;exitX=0.5;exitY=1;exitDx=0;exitDy=0;entryX=0.5;entryY=0;entryDx=0;entryDy=0;fontSize=12;shape=link;" parent="1" source="2_VgH_F3UV7ENEaMxQOe-5" target="9-VR7E2qSb-oxVVlqB_M-4" edge="1">
          <mxGeometry relative="1" as="geometry" />
        </mxCell>
        <mxCell id="2_VgH_F3UV7ENEaMxQOe-5" value="&lt;div&gt;机器人框架&lt;/div&gt;Astrbot" style="rounded=0;whiteSpace=wrap;html=1;fillColor=#bac8d3;strokeColor=#23445d;" parent="1" vertex="1">
          <mxGeometry x="1535" y="452.5" width="120" height="60" as="geometry" />
        </mxCell>
        <mxCell id="2_VgH_F3UV7ENEaMxQOe-11" value="Github Page" style="rounded=0;whiteSpace=wrap;html=1;fillColor=#d0cee2;strokeColor=#56517e;" parent="1" vertex="1">
          <mxGeometry x="260" y="185" width="120" height="60" as="geometry" />
        </mxCell>
        <mxCell id="2_VgH_F3UV7ENEaMxQOe-12" value="Render Page" style="rounded=0;whiteSpace=wrap;html=1;fillColor=#d0cee2;strokeColor=#56517e;" parent="1" vertex="1">
          <mxGeometry x="410" y="185" width="120" height="60" as="geometry" />
        </mxCell>
        <mxCell id="2_VgH_F3UV7ENEaMxQOe-13" value="Vercel Page" style="rounded=0;whiteSpace=wrap;html=1;fillColor=#d0cee2;strokeColor=#56517e;" parent="1" vertex="1">
          <mxGeometry x="560" y="185" width="120" height="60" as="geometry" />
        </mxCell>
        <mxCell id="2_VgH_F3UV7ENEaMxQOe-14" value="Cloudflare Page" style="rounded=0;whiteSpace=wrap;html=1;fillColor=#d0cee2;strokeColor=#56517e;" parent="1" vertex="1">
          <mxGeometry x="710" y="185" width="120" height="60" as="geometry" />
        </mxCell>
        <mxCell id="2_VgH_F3UV7ENEaMxQOe-57" style="edgeStyle=none;curved=1;rounded=0;orthogonalLoop=1;jettySize=auto;html=1;exitX=0.5;exitY=0;exitDx=0;exitDy=0;entryX=0.25;entryY=1;entryDx=0;entryDy=0;fontSize=12;" parent="1" source="2_VgH_F3UV7ENEaMxQOe-15" edge="1">
          <mxGeometry relative="1" as="geometry">
            <mxPoint x="367.5" y="260" as="targetPoint" />
          </mxGeometry>
        </mxCell>
        <mxCell id="2_VgH_F3UV7ENEaMxQOe-15" value="API" style="rounded=0;whiteSpace=wrap;html=1;fillColor=#b0e3e6;strokeColor=#0e8088;" parent="1" vertex="1">
          <mxGeometry x="253" y="307" width="230" height="30" as="geometry" />
        </mxCell>
        <mxCell id="2_VgH_F3UV7ENEaMxQOe-58" style="edgeStyle=none;curved=1;rounded=0;orthogonalLoop=1;jettySize=auto;html=1;exitX=1;exitY=0.5;exitDx=0;exitDy=0;entryX=0;entryY=0.5;entryDx=0;entryDy=0;fontSize=12;shape=link;" parent="1" source="2_VgH_F3UV7ENEaMxQOe-16" target="2_VgH_F3UV7ENEaMxQOe-17" edge="1">
          <mxGeometry relative="1" as="geometry" />
        </mxCell>
        <mxCell id="2_VgH_F3UV7ENEaMxQOe-16" value="&lt;div&gt;数据库&lt;/div&gt;Postgres DB" style="rounded=0;whiteSpace=wrap;html=1;fillColor=#b0e3e6;strokeColor=#0e8088;" parent="1" vertex="1">
          <mxGeometry x="370" y="397" width="113" height="125" as="geometry" />
        </mxCell>
        <mxCell id="2_VgH_F3UV7ENEaMxQOe-49" style="edgeStyle=none;curved=1;rounded=0;orthogonalLoop=1;jettySize=auto;html=1;exitX=0.25;exitY=1;exitDx=0;exitDy=0;entryX=0.5;entryY=0;entryDx=0;entryDy=0;fontSize=12;startSize=8;endSize=8;" parent="1" source="2_VgH_F3UV7ENEaMxQOe-17" target="2_VgH_F3UV7ENEaMxQOe-31" edge="1">
          <mxGeometry relative="1" as="geometry" />
        </mxCell>
        <mxCell id="2_VgH_F3UV7ENEaMxQOe-80" style="edgeStyle=orthogonalEdgeStyle;rounded=0;orthogonalLoop=1;jettySize=auto;html=1;exitX=0.75;exitY=0;exitDx=0;exitDy=0;entryX=0.5;entryY=1;entryDx=0;entryDy=0;fontSize=12;startSize=8;endSize=8;" parent="1" source="2_VgH_F3UV7ENEaMxQOe-17" target="2_VgH_F3UV7ENEaMxQOe-79" edge="1">
          <mxGeometry relative="1" as="geometry" />
        </mxCell>
        <mxCell id="Z0qvKeeSvE4q1odlj8iB-3" style="edgeStyle=orthogonalEdgeStyle;rounded=0;orthogonalLoop=1;jettySize=auto;html=1;exitX=0.75;exitY=1;exitDx=0;exitDy=0;entryX=0.5;entryY=0;entryDx=0;entryDy=0;" edge="1" parent="1" source="2_VgH_F3UV7ENEaMxQOe-17" target="Z0qvKeeSvE4q1odlj8iB-2">
          <mxGeometry relative="1" as="geometry" />
        </mxCell>
        <mxCell id="Z0qvKeeSvE4q1odlj8iB-9" style="edgeStyle=orthogonalEdgeStyle;rounded=0;orthogonalLoop=1;jettySize=auto;html=1;exitX=0.75;exitY=0;exitDx=0;exitDy=0;entryX=0.5;entryY=1;entryDx=0;entryDy=0;" edge="1" parent="1" source="2_VgH_F3UV7ENEaMxQOe-17" target="Z0qvKeeSvE4q1odlj8iB-8">
          <mxGeometry relative="1" as="geometry" />
        </mxCell>
        <mxCell id="2_VgH_F3UV7ENEaMxQOe-17" value="&lt;div&gt;后端&lt;/div&gt;phantoms_backend" style="rounded=0;whiteSpace=wrap;html=1;fillColor=#fad9d5;strokeColor=#ae4132;" parent="1" vertex="1">
          <mxGeometry x="640" y="420" width="230" height="80" as="geometry" />
        </mxCell>
        <mxCell id="2_VgH_F3UV7ENEaMxQOe-43" style="edgeStyle=none;curved=1;rounded=0;orthogonalLoop=1;jettySize=auto;html=1;exitX=1;exitY=0.25;exitDx=0;exitDy=0;entryX=0;entryY=0.25;entryDx=0;entryDy=0;fontSize=12;startSize=8;endSize=8;" parent="1" source="2_VgH_F3UV7ENEaMxQOe-18" target="2_VgH_F3UV7ENEaMxQOe-5" edge="1">
          <mxGeometry relative="1" as="geometry" />
        </mxCell>
        <mxCell id="2_VgH_F3UV7ENEaMxQOe-47" style="edgeStyle=orthogonalEdgeStyle;rounded=0;orthogonalLoop=1;jettySize=auto;html=1;exitX=0.5;exitY=0;exitDx=0;exitDy=0;entryX=0.75;entryY=1;entryDx=0;entryDy=0;fontSize=12;" parent="1" source="2_VgH_F3UV7ENEaMxQOe-18" target="2_VgH_F3UV7ENEaMxQOe-27" edge="1">
          <mxGeometry relative="1" as="geometry" />
        </mxCell>
        <mxCell id="2_VgH_F3UV7ENEaMxQOe-18" value="docker-Seka" style="rounded=0;whiteSpace=wrap;html=1;fillColor=#bac8d3;strokeColor=#23445d;" parent="1" vertex="1">
          <mxGeometry x="1266" y="452.5" width="120" height="60" as="geometry" />
        </mxCell>
        <mxCell id="2_VgH_F3UV7ENEaMxQOe-23" style="edgeStyle=none;curved=1;rounded=0;orthogonalLoop=1;jettySize=auto;html=1;exitX=0.25;exitY=1;exitDx=0;exitDy=0;entryX=0.25;entryY=0;entryDx=0;entryDy=0;fontSize=12;startSize=8;endSize=8;" parent="1" source="2_VgH_F3UV7ENEaMxQOe-19" target="2_VgH_F3UV7ENEaMxQOe-22" edge="1">
          <mxGeometry relative="1" as="geometry" />
        </mxCell>
        <mxCell id="2_VgH_F3UV7ENEaMxQOe-46" style="edgeStyle=orthogonalEdgeStyle;rounded=0;orthogonalLoop=1;jettySize=auto;html=1;exitX=0.5;exitY=0;exitDx=0;exitDy=0;entryX=0.75;entryY=1;entryDx=0;entryDy=0;fontSize=12;startSize=8;endSize=8;" parent="1" source="2_VgH_F3UV7ENEaMxQOe-19" target="2_VgH_F3UV7ENEaMxQOe-27" edge="1">
          <mxGeometry relative="1" as="geometry" />
        </mxCell>
        <mxCell id="2_VgH_F3UV7ENEaMxQOe-19" value="docker-PhantomsOfficial" style="rounded=0;whiteSpace=wrap;html=1;fillColor=#bac8d3;strokeColor=#23445d;" parent="1" vertex="1">
          <mxGeometry x="1115" y="452.5" width="120" height="60" as="geometry" />
        </mxCell>
        <mxCell id="2_VgH_F3UV7ENEaMxQOe-24" style="edgeStyle=none;curved=1;rounded=0;orthogonalLoop=1;jettySize=auto;html=1;exitX=0.75;exitY=0;exitDx=0;exitDy=0;entryX=0.75;entryY=1;entryDx=0;entryDy=0;fontSize=12;startSize=8;endSize=8;" parent="1" source="2_VgH_F3UV7ENEaMxQOe-22" target="2_VgH_F3UV7ENEaMxQOe-19" edge="1">
          <mxGeometry relative="1" as="geometry" />
        </mxCell>
        <mxCell id="2_VgH_F3UV7ENEaMxQOe-22" value="&lt;div&gt;獭獭&lt;/div&gt;OtterBot" style="rounded=0;whiteSpace=wrap;html=1;fillColor=#bac8d3;strokeColor=#23445d;" parent="1" vertex="1">
          <mxGeometry x="1115" y="704" width="120" height="60" as="geometry" />
        </mxCell>
        <mxCell id="2_VgH_F3UV7ENEaMxQOe-25" value="" style="rounded=0;whiteSpace=wrap;html=1;" parent="1" vertex="1">
          <mxGeometry x="260" y="60" width="570" height="130" as="geometry" />
        </mxCell>
        <mxCell id="2_VgH_F3UV7ENEaMxQOe-82" style="edgeStyle=none;curved=1;rounded=0;orthogonalLoop=1;jettySize=auto;html=1;exitX=0.5;exitY=0;exitDx=0;exitDy=0;entryX=0.5;entryY=1;entryDx=0;entryDy=0;fontSize=12;startSize=8;endSize=8;" parent="1" source="2_VgH_F3UV7ENEaMxQOe-26" target="2_VgH_F3UV7ENEaMxQOe-1" edge="1">
          <mxGeometry relative="1" as="geometry" />
        </mxCell>
        <mxCell id="2_VgH_F3UV7ENEaMxQOe-26" value="&lt;div&gt;定时服务&lt;/div&gt;Cron Job" style="rounded=0;whiteSpace=wrap;html=1;" parent="1" vertex="1">
          <mxGeometry x="935" y="704" width="120" height="60" as="geometry" />
        </mxCell>
        <mxCell id="2_VgH_F3UV7ENEaMxQOe-27" value="QQ" style="rounded=0;whiteSpace=wrap;html=1;fillColor=#bac8d3;strokeColor=#23445d;" parent="1" vertex="1">
          <mxGeometry x="1311" y="170" width="175" height="60" as="geometry" />
        </mxCell>
        <mxCell id="2_VgH_F3UV7ENEaMxQOe-29" value="&lt;div&gt;塔塔露&lt;/div&gt;TataruBot2" style="rounded=0;whiteSpace=wrap;html=1;fillColor=#bac8d3;strokeColor=#23445d;" parent="1" vertex="1">
          <mxGeometry x="1245" y="704" width="120" height="60" as="geometry" />
        </mxCell>
        <mxCell id="2_VgH_F3UV7ENEaMxQOe-31" value="&lt;div&gt;天气组件&lt;/div&gt;ffxiv-weather" style="rounded=0;whiteSpace=wrap;html=1;fillColor=#fad9d5;strokeColor=#ae4132;" parent="1" vertex="1">
          <mxGeometry x="637" y="545" width="120" height="60" as="geometry" />
        </mxCell>
        <mxCell id="2_VgH_F3UV7ENEaMxQOe-34" value="&lt;div&gt;图床&lt;/div&gt;PhotoPrism" style="rounded=0;whiteSpace=wrap;html=1;fillColor=#fad7ac;strokeColor=#b46504;" parent="1" vertex="1">
          <mxGeometry x="1675" y="452.5" width="120" height="60" as="geometry" />
        </mxCell>
        <mxCell id="2_VgH_F3UV7ENEaMxQOe-59" style="edgeStyle=none;curved=1;rounded=0;orthogonalLoop=1;jettySize=auto;html=1;exitX=0.75;exitY=0;exitDx=0;exitDy=0;entryX=0.75;entryY=1;entryDx=0;entryDy=0;fontSize=12;shape=link;" parent="1" edge="1">
          <mxGeometry relative="1" as="geometry">
            <mxPoint x="783.7499999999995" y="703" as="sourcePoint" />
            <mxPoint x="782.4999999999995" y="500" as="targetPoint" />
          </mxGeometry>
        </mxCell>
        <mxCell id="2_VgH_F3UV7ENEaMxQOe-36" value="LeanCloud" style="rounded=0;whiteSpace=wrap;html=1;align=left;fillColor=#fad9d5;strokeColor=#ae4132;" parent="1" vertex="1">
          <mxGeometry x="660" y="703" width="205" height="80" as="geometry" />
        </mxCell>
        <mxCell id="2_VgH_F3UV7ENEaMxQOe-39" value="&lt;div&gt;对象存储&lt;/div&gt;Object Storage" style="rounded=0;whiteSpace=wrap;html=1;fillColor=#fad9d5;strokeColor=#ae4132;" parent="1" vertex="1">
          <mxGeometry x="730" y="713" width="120" height="60" as="geometry" />
        </mxCell>
        <mxCell id="2_VgH_F3UV7ENEaMxQOe-40" value="&lt;div&gt;&lt;span style=&quot;background-color: transparent; color: light-dark(rgb(0, 0, 0), rgb(255, 255, 255));&quot;&gt;KV Store&lt;/span&gt;&lt;/div&gt;" style="rounded=0;whiteSpace=wrap;html=1;fillColor=#b1ddf0;strokeColor=#10739e;" parent="1" vertex="1">
          <mxGeometry x="843" y="190" width="120" height="60" as="geometry" />
        </mxCell>
        <mxCell id="2_VgH_F3UV7ENEaMxQOe-42" value="&lt;div&gt;聊天服务器&lt;/div&gt;vocechat-server" style="rounded=0;whiteSpace=wrap;html=1;fillColor=#fad7ac;strokeColor=#b46504;" parent="1" vertex="1">
          <mxGeometry x="1675" y="525" width="120" height="60" as="geometry" />
        </mxCell>
        <mxCell id="2_VgH_F3UV7ENEaMxQOe-50" style="edgeStyle=none;curved=1;rounded=0;orthogonalLoop=1;jettySize=auto;html=1;exitX=0.75;exitY=0;exitDx=0;exitDy=0;entryX=0.381;entryY=0.984;entryDx=0;entryDy=0;entryPerimeter=0;fontSize=12;startSize=8;endSize=8;" parent="1" source="2_VgH_F3UV7ENEaMxQOe-31" target="2_VgH_F3UV7ENEaMxQOe-17" edge="1">
          <mxGeometry relative="1" as="geometry" />
        </mxCell>
        <mxCell id="2_VgH_F3UV7ENEaMxQOe-54" style="edgeStyle=orthogonalEdgeStyle;rounded=0;orthogonalLoop=1;jettySize=auto;html=1;exitX=0.75;exitY=0;exitDx=0;exitDy=0;entryX=0.5;entryY=1;entryDx=0;entryDy=0;fontSize=12;startSize=8;endSize=8;" parent="1" source="2_VgH_F3UV7ENEaMxQOe-17" target="2_VgH_F3UV7ENEaMxQOe-40" edge="1">
          <mxGeometry relative="1" as="geometry" />
        </mxCell>
        <mxCell id="2_VgH_F3UV7ENEaMxQOe-56" style="edgeStyle=none;curved=1;rounded=0;orthogonalLoop=1;jettySize=auto;html=1;exitX=0;exitY=0;exitDx=0;exitDy=0;fontSize=12;shape=link;" parent="1" edge="1">
          <mxGeometry relative="1" as="geometry">
            <mxPoint x="649" y="420" as="sourcePoint" />
            <mxPoint x="649" y="260" as="targetPoint" />
          </mxGeometry>
        </mxCell>
        <mxCell id="2_VgH_F3UV7ENEaMxQOe-60" value="JDBC" style="text;strokeColor=none;align=center;fillColor=none;html=1;verticalAlign=middle;whiteSpace=wrap;rounded=0;" parent="1" vertex="1">
          <mxGeometry x="485" y="435" width="60" height="30" as="geometry" />
        </mxCell>
        <mxCell id="2_VgH_F3UV7ENEaMxQOe-69" style="edgeStyle=none;curved=1;rounded=0;orthogonalLoop=1;jettySize=auto;html=1;exitX=1;exitY=0.5;exitDx=0;exitDy=0;entryX=0;entryY=0.5;entryDx=0;entryDy=0;fontSize=12;shape=flexArrow;" parent="1" source="2_VgH_F3UV7ENEaMxQOe-68" target="2_VgH_F3UV7ENEaMxQOe-3" edge="1">
          <mxGeometry relative="1" as="geometry" />
        </mxCell>
        <mxCell id="2_VgH_F3UV7ENEaMxQOe-68" value="Github Workflow" style="rounded=0;whiteSpace=wrap;html=1;fillColor=#d0cee2;strokeColor=#56517e;" parent="1" vertex="1">
          <mxGeometry x="-177" y="113.75" width="150" height="72.5" as="geometry" />
        </mxCell>
        <mxCell id="2_VgH_F3UV7ENEaMxQOe-72" style="edgeStyle=orthogonalEdgeStyle;rounded=0;orthogonalLoop=1;jettySize=auto;html=1;exitX=0.5;exitY=0;exitDx=0;exitDy=0;entryX=0.25;entryY=1;entryDx=0;entryDy=0;fontSize=12;shape=link;" parent="1" source="2_VgH_F3UV7ENEaMxQOe-71" target="2_VgH_F3UV7ENEaMxQOe-3" edge="1">
          <mxGeometry relative="1" as="geometry" />
        </mxCell>
        <mxCell id="2_VgH_F3UV7ENEaMxQOe-71" value="PicGO 图床" style="rounded=0;whiteSpace=wrap;html=1;" parent="1" vertex="1">
          <mxGeometry x="20" y="322" width="170" height="78" as="geometry" />
        </mxCell>
        <mxCell id="2_VgH_F3UV7ENEaMxQOe-73" value="Bilibili Plugin" style="rounded=0;whiteSpace=wrap;html=1;fillColor=#d0cee2;strokeColor=#56517e;" parent="1" vertex="1">
          <mxGeometry x="133" y="60" width="100" height="38" as="geometry" />
        </mxCell>
        <mxCell id="2_VgH_F3UV7ENEaMxQOe-74" value="OOPZ/KOOK" style="rounded=0;whiteSpace=wrap;html=1;fillColor=#d0cee2;strokeColor=#56517e;" parent="1" vertex="1">
          <mxGeometry x="133" y="108" width="100" height="38" as="geometry" />
        </mxCell>
        <mxCell id="2_VgH_F3UV7ENEaMxQOe-75" value="&lt;div&gt;主页&lt;/div&gt;&lt;div&gt;&lt;br&gt;&lt;/div&gt;FFXIV_Phantoms_MainPage&lt;div&gt;(Mobirise)&lt;/div&gt;" style="rounded=0;whiteSpace=wrap;html=1;fillColor=#d0cee2;strokeColor=#56517e;" parent="1" vertex="1">
          <mxGeometry x="270" y="70" width="270" height="110" as="geometry" />
        </mxCell>
        <mxCell id="2_VgH_F3UV7ENEaMxQOe-76" value="&lt;div&gt;副站点&lt;/div&gt;&lt;div&gt;&lt;br&gt;&lt;/div&gt;ffxiv_phantoms_mainpage_vue" style="rounded=0;whiteSpace=wrap;html=1;fillColor=#d0cee2;strokeColor=#56517e;" parent="1" vertex="1">
          <mxGeometry x="540" y="70" width="280" height="110" as="geometry" />
        </mxCell>
        <mxCell id="2_VgH_F3UV7ENEaMxQOe-78" style="edgeStyle=orthogonalEdgeStyle;rounded=0;orthogonalLoop=1;jettySize=auto;html=1;exitX=1;exitY=0.5;exitDx=0;exitDy=0;entryX=0;entryY=0.75;entryDx=0;entryDy=0;fontSize=12;startSize=8;endSize=8;" parent="1" source="2_VgH_F3UV7ENEaMxQOe-77" target="2_VgH_F3UV7ENEaMxQOe-17" edge="1">
          <mxGeometry relative="1" as="geometry">
            <Array as="points">
              <mxPoint x="520" y="650" />
              <mxPoint x="520" y="480" />
            </Array>
          </mxGeometry>
        </mxCell>
        <mxCell id="2_VgH_F3UV7ENEaMxQOe-77" value="XIV API&lt;br&gt;（CafeMaker）" style="rounded=0;whiteSpace=wrap;html=1;fillColor=#fad9d5;strokeColor=#ae4132;" parent="1" vertex="1">
          <mxGeometry x="380" y="620" width="90" height="60" as="geometry" />
        </mxCell>
        <mxCell id="2_VgH_F3UV7ENEaMxQOe-79" value="&lt;div&gt;&lt;span style=&quot;background-color: transparent; color: light-dark(rgb(0, 0, 0), rgb(255, 255, 255));&quot;&gt;数据库&lt;/span&gt;&lt;/div&gt;&lt;div&gt;&lt;span style=&quot;background-color: transparent; color: light-dark(rgb(0, 0, 0), rgb(255, 255, 255));&quot;&gt;D1&amp;nbsp;&lt;/span&gt;&lt;span style=&quot;background-color: transparent;&quot;&gt;SQLite&lt;/span&gt;&lt;/div&gt;" style="rounded=0;whiteSpace=wrap;html=1;fillColor=#b1ddf0;strokeColor=#10739e;" parent="1" vertex="1">
          <mxGeometry x="967" y="190" width="120" height="60" as="geometry" />
        </mxCell>
        <mxCell id="2_VgH_F3UV7ENEaMxQOe-83" value="MemfireDB" style="rounded=0;whiteSpace=wrap;html=1;fillColor=#b0e3e6;strokeColor=#0e8088;" parent="1" vertex="1">
          <mxGeometry x="233" y="545" width="120" height="35" as="geometry" />
        </mxCell>
        <mxCell id="2_VgH_F3UV7ENEaMxQOe-84" value="&lt;div&gt;文件存储&lt;/div&gt;Storage" style="rounded=0;whiteSpace=wrap;html=1;fillColor=#b0e3e6;strokeColor=#0e8088;" parent="1" vertex="1">
          <mxGeometry x="257" y="397" width="113" height="125" as="geometry" />
        </mxCell>
        <mxCell id="2_VgH_F3UV7ENEaMxQOe-85" value="xivpf&lt;div&gt;littlenightmare&lt;/div&gt;" style="rounded=0;whiteSpace=wrap;html=1;fillColor=#fad9d5;strokeColor=#ae4132;" parent="1" vertex="1">
          <mxGeometry x="380" y="680" width="90" height="60" as="geometry" />
        </mxCell>
        <mxCell id="2_VgH_F3UV7ENEaMxQOe-86" value="用户User" style="shape=umlActor;verticalLabelPosition=bottom;verticalAlign=top;html=1;outlineConnect=0;" parent="1" vertex="1">
          <mxGeometry x="950" y="-80" width="30" height="60" as="geometry" />
        </mxCell>
        <mxCell id="2_VgH_F3UV7ENEaMxQOe-88" style="edgeStyle=orthogonalEdgeStyle;rounded=0;orthogonalLoop=1;jettySize=auto;html=1;exitX=0.5;exitY=0;exitDx=0;exitDy=0;entryX=0;entryY=0.3333333333333333;entryDx=0;entryDy=0;entryPerimeter=0;fontSize=12;startSize=8;endSize=8;" parent="1" source="2_VgH_F3UV7ENEaMxQOe-75" target="2_VgH_F3UV7ENEaMxQOe-86" edge="1">
          <mxGeometry relative="1" as="geometry" />
        </mxCell>
        <mxCell id="2_VgH_F3UV7ENEaMxQOe-89" style="edgeStyle=orthogonalEdgeStyle;rounded=0;orthogonalLoop=1;jettySize=auto;html=1;exitX=0.5;exitY=0;exitDx=0;exitDy=0;entryX=0;entryY=0.3333333333333333;entryDx=0;entryDy=0;entryPerimeter=0;fontSize=12;startSize=8;endSize=8;" parent="1" source="2_VgH_F3UV7ENEaMxQOe-76" target="2_VgH_F3UV7ENEaMxQOe-86" edge="1">
          <mxGeometry relative="1" as="geometry" />
        </mxCell>
        <mxCell id="2_VgH_F3UV7ENEaMxQOe-90" style="edgeStyle=orthogonalEdgeStyle;rounded=0;orthogonalLoop=1;jettySize=auto;html=1;exitX=0.5;exitY=0;exitDx=0;exitDy=0;entryX=1;entryY=0.3333333333333333;entryDx=0;entryDy=0;entryPerimeter=0;fontSize=12;startSize=8;endSize=8;" parent="1" source="2_VgH_F3UV7ENEaMxQOe-27" target="2_VgH_F3UV7ENEaMxQOe-86" edge="1">
          <mxGeometry relative="1" as="geometry" />
        </mxCell>
        <mxCell id="9-VR7E2qSb-oxVVlqB_M-2" style="edgeStyle=none;curved=1;rounded=0;orthogonalLoop=1;jettySize=auto;html=1;exitX=0;exitY=0.5;exitDx=0;exitDy=0;entryX=1;entryY=0.75;entryDx=0;entryDy=0;fontSize=12;startSize=8;endSize=8;" parent="1" source="2_VgH_F3UV7ENEaMxQOe-6" target="2_VgH_F3UV7ENEaMxQOe-17" edge="1">
          <mxGeometry relative="1" as="geometry" />
        </mxCell>
        <mxCell id="9-VR7E2qSb-oxVVlqB_M-3" style="edgeStyle=none;curved=1;rounded=0;orthogonalLoop=1;jettySize=auto;html=1;exitX=1;exitY=0.5;exitDx=0;exitDy=0;entryX=0.003;entryY=0.338;entryDx=0;entryDy=0;entryPerimeter=0;fontSize=12;startSize=8;endSize=8;" parent="1" source="2_VgH_F3UV7ENEaMxQOe-17" target="2_VgH_F3UV7ENEaMxQOe-6" edge="1">
          <mxGeometry relative="1" as="geometry" />
        </mxCell>
        <mxCell id="9-VR7E2qSb-oxVVlqB_M-4" value="&lt;div&gt;LLM&lt;/div&gt;" style="rounded=0;whiteSpace=wrap;html=1;fillColor=#bac8d3;strokeColor=#23445d;" parent="1" vertex="1">
          <mxGeometry x="1535" y="704" width="120" height="60" as="geometry" />
        </mxCell>
        <mxCell id="Z0qvKeeSvE4q1odlj8iB-2" value="&lt;div&gt;&lt;span style=&quot;background-color: transparent; color: light-dark(rgb(0, 0, 0), rgb(255, 255, 255));&quot;&gt;KV Store&lt;/span&gt;&lt;/div&gt;" style="rounded=0;whiteSpace=wrap;html=1;fillColor=#fad9d5;strokeColor=#ae4132;" vertex="1" parent="1">
          <mxGeometry x="840" y="545" width="120" height="60" as="geometry" />
        </mxCell>
        <mxCell id="Z0qvKeeSvE4q1odlj8iB-6" style="edgeStyle=orthogonalEdgeStyle;rounded=0;orthogonalLoop=1;jettySize=auto;html=1;exitX=1;exitY=0;exitDx=0;exitDy=0;entryX=0;entryY=0.891;entryDx=0;entryDy=0;entryPerimeter=0;" edge="1" parent="1" source="2_VgH_F3UV7ENEaMxQOe-15" target="2_VgH_F3UV7ENEaMxQOe-41">
          <mxGeometry relative="1" as="geometry" />
        </mxCell>
        <mxCell id="Z0qvKeeSvE4q1odlj8iB-7" value="Hyperdrive" style="text;strokeColor=none;align=center;fillColor=none;html=1;verticalAlign=middle;whiteSpace=wrap;rounded=0;" vertex="1" parent="1">
          <mxGeometry x="540" y="280" width="60" height="30" as="geometry" />
        </mxCell>
        <mxCell id="Z0qvKeeSvE4q1odlj8iB-8" value="&lt;div&gt;对象存储&lt;/div&gt;R2 Storage" style="rounded=0;whiteSpace=wrap;html=1;fillColor=#b1ddf0;strokeColor=#10739e;" vertex="1" parent="1">
          <mxGeometry x="1090" y="190" width="120" height="60" as="geometry" />
        </mxCell>
      </root>
    </mxGraphModel>
  </diagram>
</mxfile>
